# xmcd
# 
# Track frame offsets:
#     150
#     19669
#     41698
#     59929
#     77292
#     99150
#     121916
#     144059
#     164865
#     185374
#     201668
#     221153
#     240506
#     260100
# 
# Disc length: 3714
# 
# Revision: 3
# Processed by: cddbd v1.5.2PL0 Copyright (c) Steve Scherf et al.
# Submitted via: fre:ac v1.0.27
# 
DISCID=cb0e800e
DTITLE=Tinariwen - Emmaar
DYEAR=2014
DGENRE=Blues
TTITLE0=Toumast Tincha
TTITLE1=Chaghaybou
TTITLE2=Arhegh Danagh
TTITLE3=Timadrit in Sahara
TTITLE4=Imidiwan Ahi Sigdim
TTITLE5=Tahalamot
TTITLE6=Sendad Eghlalan
TTITLE7=Imdiwanin Ahi Tifhamam
TTITLE8=Koud Edhaz Emin
TTITLE9=Emajer
TTITLE10=Aghregh Medin
TTITLE11=Adouna Ti Chidjret
TTITLE12=Islegh Taghram Tifhamam
TTITLE13=Tin Ihlan
EXTD=
EXTT0=
EXTT1=
EXTT2=
EXTT3=
EXTT4=
EXTT5=
EXTT6=
EXTT7=
EXTT8=
EXTT9=
EXTT10=
EXTT11=
EXTT12=
EXTT13=
PLAYORDER=
